<mxfile host="65bd71144e">
    <diagram id="M3xOd1wKQmutDYT1r9Ci" name="TitiulP">
        <mxGraphModel dx="2013" dy="1464" grid="1" gridSize="10" guides="1" tooltips="1" connect="1" arrows="1" fold="1" page="1" pageScale="1" pageWidth="850" pageHeight="1100" math="0" shadow="0">
            <root>
                <mxCell id="0"/>
                <mxCell id="1" parent="0"/>
                <mxCell id="t62y1rZ4QVsufVT8QXxX-1" value="&lt;p style=&quot;font-family: &amp;quot;Times New Roman&amp;quot;; font-size: 32px;&quot;&gt;&lt;font style=&quot;background-color: rgb(255, 255, 255); font-size: 32px;&quot; color=&quot;#000000&quot;&gt;VYSOKÉ UČENÍ TECHNICKÉ V BRNĚ&lt;/font&gt;&lt;/p&gt;&lt;p style=&quot;font-family: &amp;quot;Times New Roman&amp;quot;; font-size: 32px;&quot;&gt;&lt;font style=&quot;background-color: rgb(255, 255, 255); font-size: 32px;&quot; color=&quot;#000000&quot;&gt;Fakulta informačních technologií&lt;/font&gt;&lt;/p&gt;" style="text;html=1;strokeColor=none;fillColor=none;spacing=5;spacingTop=-20;whiteSpace=wrap;overflow=hidden;rounded=0;align=center;" parent="1" vertex="1">
                    <mxGeometry x="121" y="116" width="608" height="200" as="geometry"/>
                </mxCell>
                <mxCell id="t62y1rZ4QVsufVT8QXxX-2" value="&lt;font style=&quot;font-size: 24px;&quot; face=&quot;Times New Roman&quot;&gt;&lt;br&gt;&lt;/font&gt;&lt;p style=&quot;color: rgb(0, 0, 0); font-style: normal; font-variant-ligatures: normal; font-variant-caps: normal; font-weight: 400; letter-spacing: normal; orphans: 2; text-indent: 0px; text-transform: none; widows: 2; word-spacing: 0px; -webkit-text-stroke-width: 0px; text-decoration-thickness: initial; text-decoration-style: initial; text-decoration-color: initial; font-size: 24px;&quot;&gt;&lt;font style=&quot;font-size: 24px;&quot; face=&quot;Times New Roman&quot;&gt;ÚVOD DO SOFTWAROVÉHO INŽENÝRSTVÍ&lt;/font&gt;&lt;/p&gt;&lt;p style=&quot;color: rgb(0, 0, 0); font-style: normal; font-variant-ligatures: normal; font-variant-caps: normal; font-weight: 400; letter-spacing: normal; orphans: 2; text-indent: 0px; text-transform: none; widows: 2; word-spacing: 0px; -webkit-text-stroke-width: 0px; text-decoration-thickness: initial; text-decoration-style: initial; text-decoration-color: initial; font-size: 24px;&quot;&gt;&lt;font style=&quot;font-size: 24px;&quot; face=&quot;Times New Roman&quot;&gt;2023/2024&lt;/font&gt;&lt;/p&gt;" style="text;html=1;strokeColor=none;fillColor=none;align=center;verticalAlign=middle;whiteSpace=wrap;rounded=0;labelBackgroundColor=#FFFFFF;fontColor=#000000;" parent="1" vertex="1">
                    <mxGeometry x="170" y="346" width="510" height="200" as="geometry"/>
                </mxCell>
                <mxCell id="t62y1rZ4QVsufVT8QXxX-3" value="&lt;span style=&quot;font-family: &amp;quot;Times New Roman&amp;quot;; text-align: start;&quot;&gt;&lt;font style=&quot;font-size: 24px;&quot;&gt;Týmový projekt&amp;nbsp; – Model informačního systému&lt;/font&gt;&lt;/span&gt;" style="text;html=1;strokeColor=none;fillColor=none;align=center;verticalAlign=middle;whiteSpace=wrap;rounded=0;labelBackgroundColor=#FFFFFF;fontColor=#000000;" parent="1" vertex="1">
                    <mxGeometry x="164" y="556" width="523" height="200" as="geometry"/>
                </mxCell>
                <mxCell id="t62y1rZ4QVsufVT8QXxX-4" value="&lt;span style=&quot;font-family: &amp;quot;Times New Roman&amp;quot;; text-align: start;&quot;&gt;&lt;b style=&quot;&quot;&gt;&lt;font style=&quot;font-size: 24px;&quot;&gt;Zadání č. 57 – Pivovarníci&lt;/font&gt;&lt;/b&gt;&lt;/span&gt;" style="text;html=1;strokeColor=none;fillColor=none;align=center;verticalAlign=middle;whiteSpace=wrap;rounded=0;labelBackgroundColor=#FFFFFF;fontColor=#000000;" parent="1" vertex="1">
                    <mxGeometry x="275" y="596" width="300" height="200" as="geometry"/>
                </mxCell>
                <mxCell id="t62y1rZ4QVsufVT8QXxX-5" value="&lt;div style=&quot;text-align: left;&quot;&gt;&lt;span style=&quot;font-family: &amp;quot;Times New Roman&amp;quot;; font-size: medium;&quot;&gt;Malášek Jakub (xmalasj00)&lt;/span&gt;&lt;/div&gt;&lt;span style=&quot;font-family: &amp;quot;Times New Roman&amp;quot;; font-size: medium;&quot;&gt;&lt;div style=&quot;text-align: left;&quot;&gt;Navrátil&amp;nbsp;Hynek(x254601)&lt;/div&gt;&lt;/span&gt;&lt;span style=&quot;font-family: &amp;quot;Times New Roman&amp;quot;; font-size: medium;&quot;&gt;&lt;div style=&quot;text-align: left;&quot;&gt;Morávek&amp;nbsp;Michal(xmoravm00)&lt;/div&gt;&lt;/span&gt;&lt;span style=&quot;font-family: &amp;quot;Times New Roman&amp;quot;; font-size: medium;&quot;&gt;&lt;div style=&quot;text-align: left;&quot;&gt;Musil Jakub(xmusilj00)&lt;/div&gt;&lt;div style=&quot;text-align: left;&quot;&gt;Zezula Pavel(xzezulp00)&lt;/div&gt;&lt;/span&gt;" style="text;html=1;strokeColor=none;fillColor=none;align=center;verticalAlign=middle;whiteSpace=wrap;rounded=0;labelBackgroundColor=#FFFFFF;fontColor=#000000;" parent="1" vertex="1">
                    <mxGeometry y="900" width="300" height="200" as="geometry"/>
                </mxCell>
                <mxCell id="t62y1rZ4QVsufVT8QXxX-6" value="&lt;span style=&quot;font-family: &amp;quot;Times New Roman&amp;quot;; font-size: medium;&quot;&gt;3.12. 2023&lt;/span&gt;" style="text;html=1;strokeColor=none;fillColor=none;align=center;verticalAlign=middle;whiteSpace=wrap;rounded=0;labelBackgroundColor=#FFFFFF;fontColor=#000000;" parent="1" vertex="1">
                    <mxGeometry x="550" y="900" width="300" height="200" as="geometry"/>
                </mxCell>
            </root>
        </mxGraphModel>
    </diagram>
</mxfile>